<svg width="39" height="256" viewBox="0 0 39 256" fill="none" xmlns="http://www.w3.org/2000/svg">
<mask id="path-1-outside-1_672_510" maskUnits="userSpaceOnUse" x="-0.728027" y="-0.0712891" width="40" height="256" fill="black">
<rect fill="white" x="-0.728027" y="-0.0712891" width="40" height="256"/>
<path d="M36.992 235.441C36.992 239.089 36.288 242.305 34.88 245.089C33.472 247.841 31.456 249.969 28.832 251.473C26.176 252.977 23.072 253.729 19.52 253.729C15.968 253.729 12.88 252.977 10.256 251.473C7.59997 249.969 5.56797 247.841 4.15997 245.089C2.71997 242.305 1.99997 239.089 1.99997 235.441C1.99997 233.041 2.23997 230.897 2.71997 229.009C3.19997 227.121 3.95197 225.377 4.97597 223.777H13.04C11.92 225.185 11.104 226.785 10.592 228.577C10.08 230.337 9.82397 232.369 9.82397 234.673C9.82397 237.969 10.688 240.513 12.416 242.305C14.112 244.097 16.48 244.993 19.52 244.993C22.56 244.993 24.944 244.097 26.672 242.305C28.4 240.481 29.264 237.937 29.264 234.673C29.264 232.369 28.992 230.305 28.448 228.481C27.904 226.657 27.04 224.961 25.856 223.393H33.872C35.952 226.433 36.992 230.449 36.992 235.441ZM36.992 198.901C36.992 202.293 36.256 205.365 34.784 208.117C33.312 210.837 31.264 212.997 28.64 214.597C25.984 216.165 22.944 216.949 19.52 216.949C16.096 216.949 13.056 216.165 10.4 214.597C7.74397 212.997 5.67997 210.837 4.20797 208.117C2.73597 205.365 1.99997 202.293 1.99997 198.901C1.99997 195.541 2.73597 192.501 4.20797 189.781C5.67997 187.029 7.74397 184.869 10.4 183.301C13.056 181.733 16.096 180.949 19.52 180.949C22.944 180.949 25.984 181.733 28.64 183.301C31.264 184.869 33.312 187.029 34.784 189.781C36.256 192.501 36.992 195.541 36.992 198.901ZM29.024 198.901C29.024 197.205 28.64 195.653 27.872 194.245C27.104 192.837 26 191.717 24.56 190.885C23.12 190.053 21.44 189.637 19.52 189.637C17.6 189.637 15.936 190.053 14.528 190.885C13.088 191.685 11.984 192.789 11.216 194.197C10.416 195.605 10.016 197.173 10.016 198.901C10.016 200.661 10.416 202.245 11.216 203.653C11.984 205.061 13.088 206.181 14.528 207.013C15.936 207.813 17.6 208.213 19.52 208.213C21.44 208.213 23.12 207.813 24.56 207.013C26 206.181 27.104 205.061 27.872 203.653C28.64 202.213 29.024 200.629 29.024 198.901ZM2.71997 172.318V163.918L22.688 151.582H2.71997V143.086H36.272V151.438L16.256 163.822H36.272V172.318H2.71997ZM9.87197 125.7V135.156H2.71997V107.7H9.87197V117.204H36.272V125.7H9.87197ZM2.71997 93.3093V84.9573L36.272 71.5653V80.2533L29.36 82.9413V95.3253L36.272 98.0133V106.749L2.71997 93.3093ZM22.832 85.0533L11.552 89.1333L22.832 93.2613V85.0533ZM36.992 48.2126C36.992 51.8606 36.288 55.0766 34.88 57.8606C33.472 60.6126 31.456 62.7406 28.832 64.2446C26.176 65.7486 23.072 66.5006 19.52 66.5006C15.968 66.5006 12.88 65.7486 10.256 64.2446C7.59997 62.7406 5.56797 60.6126 4.15997 57.8606C2.71997 55.0766 1.99997 51.8606 1.99997 48.2126C1.99997 45.8126 2.23997 43.6686 2.71997 41.7806C3.19997 39.8926 3.95197 38.1486 4.97597 36.5486H13.04C11.92 37.9566 11.104 39.5566 10.592 41.3486C10.08 43.1086 9.82397 45.1406 9.82397 47.4446C9.82397 50.7406 10.688 53.2846 12.416 55.0766C14.112 56.8686 16.48 57.7646 19.52 57.7646C22.56 57.7646 24.944 56.8686 26.672 55.0766C28.4 53.2526 29.264 50.7086 29.264 47.4446C29.264 45.1406 28.992 43.0766 28.448 41.2526C27.904 39.4286 27.04 37.7326 25.856 36.1646H33.872C35.952 39.2046 36.992 43.2206 36.992 48.2126ZM9.87197 20.0002V29.4562H2.71997V2.0002H9.87197V11.5042H36.272V20.0002H9.87197Z"/>
</mask>
<path d="M34.88 245.089L36.6605 246L36.6647 245.991L34.88 245.089ZM28.832 251.473L29.8175 253.213L29.8265 253.208L28.832 251.473ZM10.256 251.473L11.2505 249.738L11.2415 249.732L10.256 251.473ZM4.15997 245.089L5.94048 244.178L5.93641 244.17L4.15997 245.089ZM2.71997 229.009L0.781633 228.516V228.516L2.71997 229.009ZM4.97597 223.777V221.777H3.88144L3.29143 222.699L4.97597 223.777ZM13.04 223.777L14.6052 225.022L17.1865 221.777H13.04V223.777ZM10.592 228.577L12.5124 229.135L12.515 229.126L10.592 228.577ZM12.416 242.305L13.8686 240.93L13.8621 240.923L13.8557 240.916L12.416 242.305ZM26.672 242.305L28.1117 243.693L28.1178 243.687L28.1239 243.68L26.672 242.305ZM28.448 228.481L26.5314 229.052L28.448 228.481ZM25.856 223.393V221.393H21.8396L24.2599 224.598L25.856 223.393ZM33.872 223.393L35.5226 222.263L34.9269 221.393H33.872V223.393ZM36.992 235.441H34.992C34.992 238.828 34.3396 241.726 33.0952 244.186L34.88 245.089L36.6647 245.991C38.2364 242.884 38.992 239.349 38.992 235.441H36.992ZM34.88 245.089L33.0995 244.178C31.8639 246.593 30.1173 248.431 27.8374 249.738L28.832 251.473L29.8265 253.208C32.7946 251.507 35.08 249.089 36.6605 246L34.88 245.089ZM28.832 251.473L27.8465 249.732C25.5371 251.04 22.7836 251.729 19.52 251.729V253.729V255.729C23.3603 255.729 26.8149 254.913 29.8175 253.213L28.832 251.473ZM19.52 253.729V251.729C16.2556 251.729 13.5227 251.04 11.2505 249.738L10.256 251.473L9.26141 253.208C12.2372 254.914 15.6803 255.729 19.52 255.729V253.729ZM10.256 251.473L11.2415 249.732C8.93048 248.424 7.17271 246.586 5.94047 244.178L4.15997 245.089L2.37947 246C3.96324 249.095 6.26947 251.514 9.27047 253.213L10.256 251.473ZM4.15997 245.089L5.93641 244.17C4.66566 241.713 3.99997 238.821 3.99997 235.441H1.99997H-3.05176e-05C-3.05176e-05 239.356 0.774286 242.896 2.38354 246.008L4.15997 245.089ZM1.99997 235.441H3.99997C3.99997 233.17 4.22742 231.196 4.65831 229.502L2.71997 229.009L0.781633 228.516C0.25252 230.597 -3.05176e-05 232.911 -3.05176e-05 235.441H1.99997ZM2.71997 229.009L4.65831 229.502C5.08693 227.816 5.75483 226.27 6.66051 224.855L4.97597 223.777L3.29143 222.699C2.14912 224.483 1.31301 226.426 0.781633 228.516L2.71997 229.009ZM4.97597 223.777V225.777H13.04V223.777V221.777H4.97597V223.777ZM13.04 223.777L11.4748 222.532C10.185 224.153 9.25061 225.991 8.66892 228.027L10.592 228.577L12.515 229.126C12.9573 227.578 13.655 226.216 14.6052 225.022L13.04 223.777ZM10.592 228.577L8.67158 228.018C8.09526 229.999 7.82397 232.226 7.82397 234.673H9.82397H11.824C11.824 232.512 12.0647 230.674 12.5124 229.135L10.592 228.577ZM9.82397 234.673H7.82397C7.82397 238.314 8.7845 241.42 10.9763 243.693L12.416 242.305L13.8557 240.916C12.5914 239.605 11.824 237.624 11.824 234.673H9.82397ZM12.416 242.305L10.9634 243.679C13.1217 245.96 16.067 246.993 19.52 246.993V244.993V242.993C16.8929 242.993 15.1022 242.233 13.8686 240.93L12.416 242.305ZM19.52 244.993V246.993C22.9744 246.993 25.9259 245.96 28.1117 243.693L26.672 242.305L25.2323 240.916C23.962 242.234 22.1455 242.993 19.52 242.993V244.993ZM26.672 242.305L28.1239 243.68C30.2994 241.384 31.264 238.29 31.264 234.673H29.264H27.264C27.264 237.583 26.5006 239.578 25.2201 240.929L26.672 242.305ZM29.264 234.673H31.264C31.264 232.214 30.9741 229.953 30.3645 227.909L28.448 228.481L26.5314 229.052C27.0099 230.657 27.264 232.523 27.264 234.673H29.264ZM28.448 228.481L30.3645 227.909C29.7502 225.849 28.7751 223.94 27.4521 222.188L25.856 223.393L24.2599 224.598C25.3048 225.982 26.0578 227.464 26.5314 229.052L28.448 228.481ZM25.856 223.393V225.393H33.872V223.393V221.393H25.856V223.393ZM33.872 223.393L32.2214 224.522C34.0058 227.13 34.992 230.712 34.992 235.441H36.992H38.992C38.992 230.186 37.8981 225.735 35.5226 222.263L33.872 223.393ZM34.784 208.117L36.5429 209.069L36.5475 209.06L34.784 208.117ZM28.64 214.597L29.6567 216.319L29.669 216.312L29.6812 216.304L28.64 214.597ZM10.4 214.597L9.36795 216.31L9.37556 216.314L9.38321 216.319L10.4 214.597ZM4.20797 208.117L2.44438 209.06L2.44903 209.069L4.20797 208.117ZM4.20797 189.781L5.96694 190.733L5.97154 190.724L4.20797 189.781ZM10.4 183.301L11.4167 185.023L10.4 183.301ZM28.64 183.301L29.6659 181.584L29.6567 181.578L28.64 183.301ZM34.784 189.781L33.0204 190.724L33.025 190.733L34.784 189.781ZM27.872 194.245L26.1162 195.202L27.872 194.245ZM24.56 190.885L23.5594 192.616L23.5594 192.616L24.56 190.885ZM14.528 190.885L15.4993 192.633L15.5225 192.62L15.5454 192.607L14.528 190.885ZM11.216 194.197L12.9549 195.185L12.9635 195.17L12.9718 195.154L11.216 194.197ZM11.216 203.653L12.9718 202.695L12.9635 202.68L12.9549 202.665L11.216 203.653ZM14.528 207.013L13.5274 208.744L13.5337 208.748L13.54 208.752L14.528 207.013ZM24.56 207.013L25.5313 208.761L25.546 208.753L25.5605 208.744L24.56 207.013ZM27.872 203.653L29.6278 204.61L29.6323 204.602L29.6367 204.594L27.872 203.653ZM36.992 198.901H34.992C34.992 201.993 34.3239 204.736 33.0204 207.173L34.784 208.117L36.5475 209.06C38.188 205.993 38.992 202.593 38.992 198.901H36.992ZM34.784 208.117L33.025 207.165C31.7202 209.576 29.9189 211.474 27.5988 212.889L28.64 214.597L29.6812 216.304C32.609 214.519 34.9038 212.097 36.5429 209.069L34.784 208.117ZM28.64 214.597L27.6232 212.874C25.3083 214.241 22.6268 214.949 19.52 214.949V216.949V218.949C23.2612 218.949 26.6597 218.088 29.6567 216.319L28.64 214.597ZM19.52 216.949V214.949C16.4132 214.949 13.7317 214.241 11.4167 212.874L10.4 214.597L9.38321 216.319C12.3803 218.088 15.7788 218.949 19.52 218.949V216.949ZM10.4 214.597L11.432 212.884C9.0811 211.467 7.26847 209.57 5.96692 207.165L4.20797 208.117L2.44903 209.069C4.09147 212.104 6.40684 214.526 9.36795 216.31L10.4 214.597ZM4.20797 208.117L5.97154 207.173C4.668 204.736 3.99997 201.993 3.99997 198.901H1.99997H-3.05176e-05C-3.05176e-05 202.593 0.803938 205.993 2.4444 209.06L4.20797 208.117ZM1.99997 198.901H3.99997C3.99997 195.844 4.66657 193.135 5.96692 190.733L4.20797 189.781L2.44903 188.829C0.805374 191.866 -3.05176e-05 195.238 -3.05176e-05 198.901H1.99997ZM4.20797 189.781L5.97154 190.724C7.27285 188.291 9.08027 186.402 11.4167 185.023L10.4 183.301L9.38321 181.578C6.40767 183.335 4.0871 185.766 2.4444 188.837L4.20797 189.781ZM10.4 183.301L11.4167 185.023C13.7317 183.656 16.4132 182.949 19.52 182.949V180.949V178.949C15.7788 178.949 12.3802 179.809 9.38321 181.578L10.4 183.301ZM19.52 180.949V182.949C22.6268 182.949 25.3083 183.656 27.6232 185.023L28.64 183.301L29.6567 181.578C26.6597 179.809 23.2612 178.949 19.52 178.949V180.949ZM28.64 183.301L27.6141 185.018C29.9198 186.395 31.7158 188.285 33.0204 190.724L34.784 189.781L36.5475 188.837C34.9082 185.772 32.6082 183.342 29.6659 181.584L28.64 183.301ZM34.784 189.781L33.025 190.733C34.3254 193.135 34.992 195.844 34.992 198.901H36.992H38.992C38.992 195.238 38.1866 191.866 36.5429 188.829L34.784 189.781ZM29.024 198.901H31.024C31.024 196.89 30.5653 195.006 29.6278 193.287L27.872 194.245L26.1162 195.202C26.7147 196.3 27.024 197.519 27.024 198.901H29.024ZM27.872 194.245L29.6278 193.287C28.6772 191.544 27.3063 190.162 25.5605 189.153L24.56 190.885L23.5594 192.616C24.6937 193.272 25.5308 194.129 26.1162 195.202L27.872 194.245ZM24.56 190.885L25.5605 189.153C23.7721 188.12 21.7363 187.637 19.52 187.637V189.637V191.637C21.1437 191.637 22.4679 191.986 23.5594 192.616L24.56 190.885ZM19.52 189.637V187.637C17.3049 187.637 15.2766 188.119 13.5105 189.163L14.528 190.885L15.5454 192.607C16.5953 191.986 17.895 191.637 19.52 191.637V189.637ZM14.528 190.885L13.5567 189.136C11.7951 190.115 10.4147 191.489 9.46018 193.239L11.216 194.197L12.9718 195.154C13.5533 194.088 14.3809 193.254 15.4993 192.633L14.528 190.885ZM11.216 194.197L9.47706 193.209C8.49445 194.938 8.01597 196.85 8.01597 198.901H10.016H12.016C12.016 197.495 12.3375 196.271 12.9549 195.185L11.216 194.197ZM10.016 198.901H8.01597C8.01597 200.976 8.49127 202.906 9.47706 204.641L11.216 203.653L12.9549 202.665C12.3407 201.584 12.016 200.345 12.016 198.901H10.016ZM11.216 203.653L9.46018 204.61C10.4108 206.353 11.7817 207.736 13.5274 208.744L14.528 207.013L15.5285 205.281C14.3942 204.626 13.5572 203.768 12.9718 202.695L11.216 203.653ZM14.528 207.013L13.54 208.752C15.3006 209.752 17.3181 210.213 19.52 210.213V208.213V206.213C17.8819 206.213 16.5713 205.873 15.516 205.274L14.528 207.013ZM19.52 208.213V210.213C21.7232 210.213 23.7483 209.752 25.5313 208.761L24.56 207.013L23.5887 205.264C22.4917 205.874 21.1567 206.213 19.52 206.213V208.213ZM24.56 207.013L25.5605 208.744C27.3063 207.736 28.6772 206.353 29.6278 204.61L27.872 203.653L26.1162 202.695C25.5308 203.768 24.6937 204.626 23.5594 205.281L24.56 207.013ZM27.872 203.653L29.6367 204.594C30.5683 202.847 31.024 200.937 31.024 198.901H29.024H27.024C27.024 200.32 26.7117 201.578 26.1073 202.712L27.872 203.653ZM2.71997 172.318H0.719971V174.318H2.71997V172.318ZM2.71997 163.918L1.66881 162.217L0.719971 162.803V163.918H2.71997ZM22.688 151.582L23.7391 153.284L29.7306 149.582H22.688V151.582ZM2.71997 151.582H0.719971V153.582H2.71997V151.582ZM2.71997 143.086V141.086H0.719971V143.086H2.71997ZM36.272 143.086H38.272V141.086H36.272V143.086ZM36.272 151.438L37.3243 153.139L38.272 152.553V151.438H36.272ZM16.256 163.822L15.2037 162.121L9.22217 165.822H16.256V163.822ZM36.272 163.822H38.272V161.822H36.272V163.822ZM36.272 172.318V174.318H38.272V172.318H36.272ZM2.71997 172.318H4.71997V163.918H2.71997H0.719971V172.318H2.71997ZM2.71997 163.918L3.77113 165.62L23.7391 153.284L22.688 151.582L21.6368 149.881L1.66881 162.217L2.71997 163.918ZM22.688 151.582V149.582H2.71997V151.582V153.582H22.688V151.582ZM2.71997 151.582H4.71997V143.086H2.71997H0.719971V151.582H2.71997ZM2.71997 143.086V145.086H36.272V143.086V141.086H2.71997V143.086ZM36.272 143.086H34.272V151.438H36.272H38.272V143.086H36.272ZM36.272 151.438L35.2197 149.737L15.2037 162.121L16.256 163.822L17.3083 165.523L37.3243 153.139L36.272 151.438ZM16.256 163.822V165.822H36.272V163.822V161.822H16.256V163.822ZM36.272 163.822H34.272V172.318H36.272H38.272V163.822H36.272ZM36.272 172.318V170.318H2.71997V172.318V174.318H36.272V172.318ZM9.87197 125.7V123.7H7.87197V125.7H9.87197ZM9.87197 135.156V137.156H11.872V135.156H9.87197ZM2.71997 135.156H0.719971V137.156H2.71997V135.156ZM2.71997 107.7V105.7H0.719971V107.7H2.71997ZM9.87197 107.7H11.872V105.7H9.87197V107.7ZM9.87197 117.204H7.87197V119.204H9.87197V117.204ZM36.272 117.204H38.272V115.204H36.272V117.204ZM36.272 125.7V127.7H38.272V125.7H36.272ZM9.87197 125.7H7.87197V135.156H9.87197H11.872V125.7H9.87197ZM9.87197 135.156V133.156H2.71997V135.156V137.156H9.87197V135.156ZM2.71997 135.156H4.71997V107.7H2.71997H0.719971V135.156H2.71997ZM2.71997 107.7V109.7H9.87197V107.7V105.7H2.71997V107.7ZM9.87197 107.7H7.87197V117.204H9.87197H11.872V107.7H9.87197ZM9.87197 117.204V119.204H36.272V117.204V115.204H9.87197V117.204ZM36.272 117.204H34.272V125.7H36.272H38.272V117.204H36.272ZM36.272 125.7V123.7H9.87197V125.7V127.7H36.272V125.7ZM2.71997 93.3093H0.719971V94.6627L1.97627 95.1659L2.71997 93.3093ZM2.71997 84.9573L1.97856 83.0998L0.719971 83.6022V84.9573H2.71997ZM36.272 71.5653H38.272V68.6136L35.5306 69.7078L36.272 71.5653ZM36.272 80.2533L36.9969 82.1174L38.272 81.6215V80.2533H36.272ZM29.36 82.9413L28.6351 81.0773L27.36 81.5732V82.9413H29.36ZM29.36 95.3253H27.36V96.6935L28.6351 97.1893L29.36 95.3253ZM36.272 98.0133H38.272V96.6452L36.9969 96.1493L36.272 98.0133ZM36.272 106.749L35.5283 108.606L38.272 109.705V106.749H36.272ZM22.832 85.0533H24.832V82.2031L22.1517 83.1726L22.832 85.0533ZM11.552 89.1333L10.8717 87.2526L5.70236 89.1223L10.8646 91.0115L11.552 89.1333ZM22.832 93.2613L22.1446 95.1395L24.832 96.123V93.2613H22.832ZM2.71997 93.3093H4.71997V84.9573H2.71997H0.719971V93.3093H2.71997ZM2.71997 84.9573L3.46138 86.8148L37.0134 73.4228L36.272 71.5653L35.5306 69.7078L1.97856 83.0998L2.71997 84.9573ZM36.272 71.5653H34.272V80.2533H36.272H38.272V71.5653H36.272ZM36.272 80.2533L35.5471 78.3893L28.6351 81.0773L29.36 82.9413L30.0849 84.8053L36.9969 82.1174L36.272 80.2533ZM29.36 82.9413H27.36V95.3253H29.36H31.36V82.9413H29.36ZM29.36 95.3253L28.6351 97.1893L35.5471 99.8773L36.272 98.0133L36.9969 96.1493L30.0849 93.4613L29.36 95.3253ZM36.272 98.0133H34.272V106.749H36.272H38.272V98.0133H36.272ZM36.272 106.749L37.0157 104.893L3.46367 91.4528L2.71997 93.3093L1.97627 95.1659L35.5283 108.606L36.272 106.749ZM22.832 85.0533L22.1517 83.1726L10.8717 87.2526L11.552 89.1333L12.2322 91.0141L23.5122 86.9341L22.832 85.0533ZM11.552 89.1333L10.8646 91.0115L22.1446 95.1395L22.832 93.2613L23.5193 91.3832L12.2393 87.2552L11.552 89.1333ZM22.832 93.2613H24.832V85.0533H22.832H20.832V93.2613H22.832ZM34.88 57.8606L36.6605 58.7715L36.6647 58.7632L34.88 57.8606ZM28.832 64.2446L29.8175 65.985L29.8265 65.9798L28.832 64.2446ZM10.256 64.2446L11.2505 62.5094L11.2415 62.5042L10.256 64.2446ZM4.15997 57.8606L5.94048 56.9496L5.93641 56.9417L4.15997 57.8606ZM2.71997 41.7806L0.781633 41.2878L2.71997 41.7806ZM4.97597 36.5486V34.5486H3.88144L3.29143 35.4705L4.97597 36.5486ZM13.04 36.5486L14.6052 37.7936L17.1865 34.5486H13.04V36.5486ZM10.592 41.3486L12.5124 41.9073L12.515 41.898L10.592 41.3486ZM12.416 55.0766L13.8686 53.7018L13.8621 53.695L13.8557 53.6883L12.416 55.0766ZM26.672 55.0766L28.1117 56.4649L28.1178 56.4585L28.1239 56.4521L26.672 55.0766ZM28.448 41.2526L26.5314 41.8242L28.448 41.2526ZM25.856 36.1646V34.1646H21.8396L24.2599 37.3698L25.856 36.1646ZM33.872 36.1646L35.5226 35.0352L34.9269 34.1646H33.872V36.1646ZM36.992 48.2126H34.992C34.992 51.6 34.3396 54.4976 33.0952 56.958L34.88 57.8606L36.6647 58.7632C38.2364 55.6556 38.992 52.1212 38.992 48.2126H36.992ZM34.88 57.8606L33.0995 56.9496C31.8639 59.3646 30.1173 61.2026 27.8374 62.5094L28.832 64.2446L29.8265 65.9798C32.7946 64.2785 35.08 61.8606 36.6605 58.7715L34.88 57.8606ZM28.832 64.2446L27.8465 62.5042C25.5371 63.812 22.7836 64.5006 19.52 64.5006L19.52 66.5006V68.5006C23.3603 68.5006 26.8149 67.6852 29.8175 65.9849L28.832 64.2446ZM19.52 66.5006L19.52 64.5006C16.2556 64.5006 13.5227 63.8118 11.2505 62.5094L10.256 64.2446L9.26141 65.9798C12.2372 67.6854 15.6803 68.5006 19.52 68.5006V66.5006ZM10.256 64.2446L11.2415 62.5042C8.93048 61.1956 7.17271 59.3581 5.94047 56.9496L4.15997 57.8606L2.37947 58.7715C3.96324 61.8671 6.26947 64.2856 9.27047 65.9849L10.256 64.2446ZM4.15997 57.8606L5.93641 56.9417C4.66566 54.485 3.99997 51.5933 3.99997 48.2126H1.99997H-3.05176e-05C-3.05176e-05 52.1279 0.774286 55.6682 2.38354 58.7794L4.15997 57.8606ZM1.99997 48.2126H3.99997C3.99997 45.942 4.22742 43.9682 4.65831 42.2734L2.71997 41.7806L0.781633 41.2878C0.25252 43.369 -3.05176e-05 45.6832 -3.05176e-05 48.2126H1.99997ZM2.71997 41.7806L4.65831 42.2734C5.08693 40.5875 5.75483 39.0418 6.66051 37.6267L4.97597 36.5486L3.29143 35.4705C2.14912 37.2553 1.31301 39.1977 0.781633 41.2878L2.71997 41.7806ZM4.97597 36.5486V38.5486H13.04V36.5486V34.5486H4.97597V36.5486ZM13.04 36.5486L11.4748 35.3035C10.185 36.925 9.25061 38.7633 8.66892 40.7991L10.592 41.3486L12.515 41.898C12.9573 40.3499 13.655 38.9882 14.6052 37.7936L13.04 36.5486ZM10.592 41.3486L8.67158 40.7899C8.09526 42.771 7.82397 44.9977 7.82397 47.4446H9.82397H11.824C11.824 45.2834 12.0647 43.4462 12.5124 41.9072L10.592 41.3486ZM9.82397 47.4446H7.82397C7.82397 51.0856 8.7845 54.1919 10.9763 56.4649L12.416 55.0766L13.8557 53.6883C12.5914 52.3773 11.824 50.3956 11.824 47.4446H9.82397ZM12.416 55.0766L10.9634 56.4514C13.1217 58.7319 16.067 59.7646 19.52 59.7646V57.7646V55.7646C16.8929 55.7646 15.1022 55.0053 13.8686 53.7018L12.416 55.0766ZM19.52 57.7646V59.7646C22.9744 59.7646 25.9259 58.7316 28.1117 56.4649L26.672 55.0766L25.2323 53.6883C23.962 55.0056 22.1455 55.7646 19.52 55.7646V57.7646ZM26.672 55.0766L28.1239 56.4521C30.2994 54.1557 31.264 51.0621 31.264 47.4446H29.264H27.264C27.264 50.3551 26.5006 52.3495 25.2201 53.7011L26.672 55.0766ZM29.264 47.4446H31.264C31.264 44.9863 30.9741 42.7247 30.3645 40.681L28.448 41.2526L26.5314 41.8242C27.0099 43.4285 27.264 45.2949 27.264 47.4446H29.264ZM28.448 41.2526L30.3645 40.681C29.7502 38.621 28.7751 36.7115 27.4521 34.9594L25.856 36.1646L24.2599 37.3698C25.3048 38.7536 26.0578 40.2362 26.5314 41.8242L28.448 41.2526ZM25.856 36.1646V38.1646H33.872V36.1646V34.1646H25.856V36.1646ZM33.872 36.1646L32.2214 37.294C34.0058 39.902 34.992 43.4837 34.992 48.2126H36.992H38.992C38.992 42.9574 37.8981 38.5072 35.5226 35.0352L33.872 36.1646ZM9.87197 20.0002V18.0002H7.87197V20.0002H9.87197ZM9.87197 29.4562V31.4562H11.872V29.4562H9.87197ZM2.71997 29.4562H0.719971V31.4562H2.71997V29.4562ZM2.71997 2.0002V0.000198364H0.719971V2.0002H2.71997ZM9.87197 2.0002H11.872V0.000198364H9.87197V2.0002ZM9.87197 11.5042H7.87197V13.5042H9.87197V11.5042ZM36.272 11.5042H38.272V9.5042H36.272V11.5042ZM36.272 20.0002V22.0002H38.272V20.0002H36.272ZM9.87197 20.0002H7.87197V29.4562H9.87197H11.872V20.0002H9.87197ZM9.87197 29.4562V27.4562H2.71997V29.4562V31.4562H9.87197V29.4562ZM2.71997 29.4562H4.71997V2.0002H2.71997H0.719971V29.4562H2.71997ZM2.71997 2.0002V4.0002H9.87197V2.0002V0.000198364H2.71997V2.0002ZM9.87197 2.0002H7.87197V11.5042H9.87197H11.872V2.0002H9.87197ZM9.87197 11.5042V13.5042H36.272V11.5042V9.5042H9.87197V11.5042ZM36.272 11.5042H34.272V20.0002H36.272H38.272V11.5042H36.272ZM36.272 20.0002V18.0002H9.87197V20.0002V22.0002H36.272V20.0002Z" fill="black" mask="url(#path-1-outside-1_672_510)"/>
</svg>
