<svg width="537" height="92" viewBox="0 0 537 92" fill="none" xmlns="http://www.w3.org/2000/svg">
<mask id="path-1-outside-1_16_52" maskUnits="userSpaceOnUse" x="0" y="0" width="537" height="92" fill="black">
<rect fill="white" width="537" height="92"/>
<path d="M47.12 89.8C38.64 89.8 30.96 87.96 24.08 84.28C17.28 80.6 11.88 75.48 7.88 68.92C3.96 62.28 2 54.68 2 46.12C2 37.56 3.96 29.96 7.88 23.32C11.88 16.68 17.28 11.52 24.08 7.83999C30.96 4.15999 38.64 2.31999 47.12 2.31999C55.52 2.31999 63.12 4.15999 69.92 7.83999C76.8 11.52 82.2 16.68 86.12 23.32C90.04 29.96 92 37.56 92 46.12C92 54.68 90.04 62.28 86.12 68.92C82.2 75.48 76.8 80.6 69.92 84.28C63.12 87.96 55.52 89.8 47.12 89.8ZM47.12 69.88C51.36 69.88 55.24 68.92 58.76 67C62.28 65.08 65.08 62.32 67.16 58.72C69.24 55.12 70.28 50.92 70.28 46.12C70.28 41.32 69.24 37.16 67.16 33.64C65.16 30.04 62.4 27.28 58.88 25.36C55.36 23.36 51.44 22.36 47.12 22.36C42.72 22.36 38.76 23.36 35.24 25.36C31.72 27.28 28.92 30.04 26.84 33.64C24.84 37.16 23.84 41.32 23.84 46.12C23.84 50.92 24.84 55.12 26.84 58.72C28.92 62.32 31.72 65.08 35.24 67C38.84 68.92 42.8 69.88 47.12 69.88ZM137.937 89.8C125.297 89.8 115.777 86.44 109.377 79.72C102.977 72.92 99.7766 63.96 99.7766 52.84V4.11999H121.017V53.08C121.017 58.68 122.497 62.92 125.457 65.8C128.497 68.68 132.657 70.12 137.937 70.12C143.217 70.12 147.337 68.68 150.297 65.8C153.257 62.92 154.737 58.68 154.737 53.08V4.11999H175.977V52.84C175.977 64.04 172.777 73 166.377 79.72C160.057 86.44 150.577 89.8 137.937 89.8ZM212.318 89.8C207.038 89.8 201.798 89.28 196.598 88.24C191.398 87.28 187.118 85.92 183.758 84.16V65.08C188.078 67.32 192.558 69 197.198 70.12C201.918 71.24 206.398 71.8 210.638 71.8C214.558 71.8 217.518 71.2 219.518 70C221.518 68.8 222.518 67.08 222.518 64.84C222.518 63.16 221.958 61.72 220.838 60.52C219.798 59.24 218.238 58.08 216.158 57.04C214.078 56 210.838 54.56 206.438 52.72C198.678 49.44 193.038 45.8 189.518 41.8C185.998 37.8 184.238 32.88 184.238 27.04C184.238 22.24 185.558 17.96 188.198 14.2C190.918 10.44 194.678 7.51999 199.478 5.44C204.278 3.36 209.798 2.31999 216.038 2.31999C221.158 2.31999 225.718 2.71999 229.718 3.51999C233.718 4.32 237.558 5.6 241.238 7.35999V25.96C234.198 22.28 227.118 20.44 219.998 20.44C216.158 20.44 213.078 21.08 210.758 22.36C208.518 23.56 207.398 25.32 207.398 27.64C207.398 29.96 208.558 31.84 210.878 33.28C213.198 34.72 217.478 36.68 223.718 39.16C229.398 41.48 233.798 43.76 236.918 46C240.118 48.24 242.438 50.84 243.878 53.8C245.318 56.76 246.038 60.52 246.038 65.08C246.038 72.84 243.198 78.92 237.518 83.32C231.918 87.64 223.518 89.8 212.318 89.8ZM246.688 4.11999H269.368L290.728 59.92L312.088 4.11999H334.648L301.168 88H280.288L246.688 4.11999ZM377.94 89.8C369.46 89.8 361.78 87.96 354.9 84.28C348.1 80.6 342.7 75.48 338.7 68.92C334.78 62.28 332.82 54.68 332.82 46.12C332.82 37.56 334.78 29.96 338.7 23.32C342.7 16.68 348.1 11.52 354.9 7.83999C361.78 4.15999 369.46 2.31999 377.94 2.31999C386.34 2.31999 393.94 4.15999 400.74 7.83999C407.62 11.52 413.02 16.68 416.94 23.32C420.86 29.96 422.82 37.56 422.82 46.12C422.82 54.68 420.86 62.28 416.94 68.92C413.02 75.48 407.62 80.6 400.74 84.28C393.94 87.96 386.34 89.8 377.94 89.8ZM377.94 69.88C382.18 69.88 386.06 68.92 389.58 67C393.1 65.08 395.9 62.32 397.98 58.72C400.06 55.12 401.1 50.92 401.1 46.12C401.1 41.32 400.06 37.16 397.98 33.64C395.98 30.04 393.22 27.28 389.7 25.36C386.18 23.36 382.26 22.36 377.94 22.36C373.54 22.36 369.58 23.36 366.06 25.36C362.54 27.28 359.74 30.04 357.66 33.64C355.66 37.16 354.66 41.32 354.66 46.12C354.66 50.92 355.66 55.12 357.66 58.72C359.74 62.32 362.54 65.08 366.06 67C369.66 68.92 373.62 69.88 377.94 69.88ZM420.945 4.11999H442.785L456.825 53.8L470.385 4.11999H485.505L498.225 53.92L512.145 4.11999H533.985L510.825 88H491.265L477.465 39.28L463.785 88H444.105L420.945 4.11999Z"/>
</mask>
<path d="M24.08 84.28L23.1281 86.039L23.1367 86.0436L24.08 84.28ZM7.88 68.92L6.15773 69.9368L6.16498 69.949L6.17241 69.9612L7.88 68.92ZM7.88 23.32L6.16684 22.288L6.16225 22.2956L6.15773 22.3032L7.88 23.32ZM24.08 7.83999L23.1367 6.0764L23.1281 6.08105L24.08 7.83999ZM69.92 7.83999L68.9681 9.59896L68.9767 9.60356L69.92 7.83999ZM86.12 23.32L84.3977 24.3368V24.3368L86.12 23.32ZM86.12 68.92L87.8369 69.9459L87.8423 69.9368L86.12 68.92ZM69.92 84.28L68.9767 82.5164L68.9681 82.5211L69.92 84.28ZM58.76 67L57.8023 65.2442L58.76 67ZM67.16 58.72L65.4283 57.7194L65.4283 57.7194L67.16 58.72ZM67.16 33.64L65.4117 34.6113L65.4246 34.6345L65.4381 34.6575L67.16 33.64ZM58.88 25.36L57.892 27.0989L57.9071 27.1075L57.9223 27.1158L58.88 25.36ZM35.24 25.36L36.1977 27.1158L36.2129 27.1075L36.228 27.0989L35.24 25.36ZM26.84 33.64L25.1083 32.6394L25.1047 32.6457L25.1011 32.652L26.84 33.64ZM26.84 58.72L25.0917 59.6913L25.0999 59.706L25.1083 59.7206L26.84 58.72ZM35.24 67L34.2823 68.7558L34.2905 68.7603L34.2988 68.7647L35.24 67ZM47.12 89.8V87.8C38.9398 87.8 31.5884 86.028 25.0233 82.5164L24.08 84.28L23.1367 86.0436C30.3316 89.892 38.3402 91.8 47.12 91.8V89.8ZM24.08 84.28L25.0319 82.5211C18.5407 79.0082 13.4023 74.135 9.58759 67.8788L7.88 68.92L6.17241 69.9612C10.3577 76.825 16.0193 82.1918 23.1281 86.0389L24.08 84.28ZM7.88 68.92L9.60227 67.9032C5.8836 61.6043 4 54.3628 4 46.12H2H0C0 54.9972 2.0364 62.9557 6.15773 69.9368L7.88 68.92ZM2 46.12H4C4 37.8772 5.8836 30.6357 9.60227 24.3368L7.88 23.32L6.15773 22.3032C2.0364 29.2843 0 37.2428 0 46.12H2ZM7.88 23.32L9.59316 24.352C13.4094 18.0171 18.5469 13.1085 25.0319 9.59894L24.08 7.83999L23.1281 6.08105C16.0131 9.9315 10.3506 15.3429 6.16684 22.288L7.88 23.32ZM24.08 7.83999L25.0233 9.60356C31.5884 6.09203 38.9398 4.31999 47.12 4.31999V2.31999V0.319994C38.3402 0.319994 30.3316 2.22796 23.1367 6.07643L24.08 7.83999ZM47.12 2.31999V4.31999C55.217 4.31999 62.4853 6.09059 68.9681 9.59894L69.92 7.83999L70.8719 6.08105C63.7547 2.2294 55.823 0.319994 47.12 0.319994V2.31999ZM69.92 7.83999L68.9767 9.60356C75.5376 13.1129 80.6664 18.0163 84.3977 24.3368L86.12 23.32L87.8423 22.3032C83.7336 15.3437 78.0624 9.92712 70.8633 6.07643L69.92 7.83999ZM86.12 23.32L84.3977 24.3368C88.1164 30.6357 90 37.8772 90 46.12H92H94C94 37.2428 91.9636 29.2843 87.8423 22.3032L86.12 23.32ZM92 46.12H90C90 54.3628 88.1164 61.6043 84.3977 67.9032L86.12 68.92L87.8423 69.9368C91.9636 62.9557 94 54.9972 94 46.12H92ZM86.12 68.92L84.4032 67.8941C80.6734 74.1358 75.5438 79.0038 68.9767 82.5164L69.92 84.28L70.8633 86.0436C78.0562 82.1962 83.7266 76.8242 87.8368 69.9459L86.12 68.92ZM69.92 84.28L68.9681 82.5211C62.4853 86.0294 55.217 87.8 47.12 87.8V89.8V91.8C55.823 91.8 63.7547 89.8906 70.8719 86.0389L69.92 84.28ZM47.12 69.88V71.88C51.6748 71.88 55.887 70.8453 59.7177 68.7558L58.76 67L57.8023 65.2442C54.593 66.9947 51.0452 67.88 47.12 67.88V69.88ZM58.76 67L59.7177 68.7558C63.5724 66.6532 66.6351 63.6263 68.8917 59.7206L67.16 58.72L65.4283 57.7194C63.5249 61.0137 60.9876 63.5068 57.8023 65.2442L58.76 67ZM67.16 58.72L68.8917 59.7206C71.1731 55.7721 72.28 51.2163 72.28 46.12H70.28H68.28C68.28 50.6237 67.3069 54.4679 65.4283 57.7194L67.16 58.72ZM70.28 46.12H72.28C72.28 41.025 71.1735 36.5007 68.8819 32.6225L67.16 33.64L65.4381 34.6575C67.3065 37.8193 68.28 41.615 68.28 46.12H70.28ZM67.16 33.64L68.9083 32.6687C66.7296 28.7471 63.6996 25.7107 59.8377 23.6042L58.88 25.36L57.9223 27.1158C61.1004 28.8493 63.5904 31.3329 65.4117 34.6113L67.16 33.64ZM58.88 25.36L59.868 23.6211C56.0266 21.4385 51.7624 20.36 47.12 20.36V22.36V24.36C51.1176 24.36 54.6934 25.2815 57.892 27.0989L58.88 25.36ZM47.12 22.36V20.36C42.4046 20.36 38.099 21.4353 34.252 23.6211L35.24 25.36L36.228 27.0989C39.421 25.2847 43.0354 24.36 47.12 24.36V22.36ZM35.24 25.36L34.2823 23.6042C30.4276 25.7068 27.3649 28.7337 25.1083 32.6394L26.84 33.64L28.5717 34.6406C30.4751 31.3463 33.0124 28.8532 36.1977 27.1158L35.24 25.36ZM26.84 33.64L25.1011 32.652C22.9007 36.5247 21.84 41.0381 21.84 46.12H23.84H25.84C25.84 41.6019 26.7793 37.7953 28.5789 34.628L26.84 33.64ZM23.84 46.12H21.84C21.84 51.2032 22.9011 55.7483 25.0917 59.6913L26.84 58.72L28.5883 57.7487C26.7789 54.4917 25.84 50.6368 25.84 46.12H23.84ZM26.84 58.72L25.1083 59.7206C27.3649 63.6263 30.4276 66.6532 34.2823 68.7558L35.24 67L36.1977 65.2442C33.0124 63.5068 30.4751 61.0137 28.5717 57.7194L26.84 58.72ZM35.24 67L34.2988 68.7647C38.2056 70.8483 42.4916 71.88 47.12 71.88V69.88V67.88C43.1084 67.88 39.4744 66.9917 36.1812 65.2353L35.24 67ZM109.377 79.72L107.92 81.0908L107.928 81.0993L109.377 79.72ZM99.7766 4.11999V2.11999H97.7766V4.11999H99.7766ZM121.017 4.11999H123.017V2.11999H121.017V4.11999ZM125.457 65.8L124.062 67.2335L124.071 67.2427L124.081 67.2519L125.457 65.8ZM150.297 65.8L151.691 67.2335L150.297 65.8ZM154.737 4.11999V2.11999H152.737V4.11999H154.737ZM175.977 4.11999H177.977V2.11999H175.977V4.11999ZM166.377 79.72L164.928 78.3407L164.92 78.3498L166.377 79.72ZM137.937 89.8V87.8C125.639 87.8 116.726 84.5372 110.825 78.3407L109.377 79.72L107.928 81.0993C114.827 88.3428 124.954 91.8 137.937 91.8V89.8ZM109.377 79.72L110.833 78.3493C104.847 71.9892 101.777 63.5539 101.777 52.84H99.7766H97.7766C97.7766 64.3661 101.106 73.8508 107.92 81.0907L109.377 79.72ZM99.7766 52.84H101.777V4.11999H99.7766H97.7766V52.84H99.7766ZM99.7766 4.11999V6.11999H121.017V4.11999V2.11999H99.7766V4.11999ZM121.017 4.11999H119.017V53.08H121.017H123.017V4.11999H121.017ZM121.017 53.08H119.017C119.017 59.0217 120.593 63.8581 124.062 67.2335L125.457 65.8L126.851 64.3665C124.4 61.9819 123.017 58.3383 123.017 53.08H121.017ZM125.457 65.8L124.081 67.2519C127.583 70.5693 132.284 72.12 137.937 72.12V70.12V68.12C133.029 68.12 129.41 66.7907 126.832 64.3481L125.457 65.8ZM137.937 70.12V72.12C143.586 72.12 148.262 70.5702 151.691 67.2335L150.297 65.8L148.902 64.3665C146.411 66.7898 142.847 68.12 137.937 68.12V70.12ZM150.297 65.8L151.691 67.2335C155.16 63.8581 156.737 59.0217 156.737 53.08H154.737H152.737C152.737 58.3383 151.353 61.9819 148.902 64.3665L150.297 65.8ZM154.737 53.08H156.737V4.11999H154.737H152.737V53.08H154.737ZM154.737 4.11999V6.11999H175.977V4.11999V2.11999H154.737V4.11999ZM175.977 4.11999H173.977V52.84H175.977H177.977V4.11999H175.977ZM175.977 52.84H173.977C173.977 63.6391 170.903 72.0669 164.928 78.3407L166.377 79.72L167.825 81.0993C174.65 73.9331 177.977 64.4409 177.977 52.84H175.977ZM166.377 79.72L164.92 78.3498C159.101 84.5365 150.236 87.8 137.937 87.8V89.8V91.8C150.917 91.8 161.012 88.3435 167.833 81.0902L166.377 79.72ZM196.598 88.24L196.99 86.2788L196.975 86.2759L196.961 86.2732L196.598 88.24ZM183.758 84.16H181.758V85.3701L182.83 85.9317L183.758 84.16ZM183.758 65.08L184.678 63.3045L181.758 61.7901V65.08H183.758ZM197.198 70.12L196.729 72.0642L196.736 72.066L197.198 70.12ZM220.838 60.52L219.286 61.7812L219.329 61.8345L219.376 61.8846L220.838 60.52ZM206.438 52.72L205.659 54.5622L205.666 54.5652L206.438 52.72ZM189.518 41.8L191.019 40.4787L189.518 41.8ZM188.198 14.2L186.577 13.0278L186.569 13.0392L186.561 13.0507L188.198 14.2ZM199.478 5.44L200.273 7.27511V7.27511L199.478 5.44ZM229.718 3.51999L230.11 1.55883V1.55883L229.718 3.51999ZM241.238 7.35999H243.238V6.09955L242.101 5.55573L241.238 7.35999ZM241.238 25.96L240.311 27.7324L243.238 29.2622V25.96H241.238ZM210.758 22.36L211.702 24.123L211.713 24.1171L211.724 24.1112L210.758 22.36ZM210.878 33.28L211.933 31.5807L210.878 33.28ZM223.718 39.16L224.474 37.3085L224.465 37.3049L224.456 37.3014L223.718 39.16ZM236.918 46L235.751 47.6246L235.761 47.6316L235.771 47.6385L236.918 46ZM243.878 53.8L245.676 52.9251L243.878 53.8ZM237.518 83.32L238.739 84.9036L238.743 84.9011L237.518 83.32ZM212.318 89.8V87.8C207.17 87.8 202.061 87.2931 196.99 86.2788L196.598 88.24L196.206 90.2012C201.534 91.2669 206.906 91.8 212.318 91.8V89.8ZM196.598 88.24L196.961 86.2732C191.887 85.3364 187.814 84.0268 184.686 82.3883L183.758 84.16L182.83 85.9317C186.422 87.8132 190.909 89.2236 196.235 90.2068L196.598 88.24ZM183.758 84.16H185.758V65.08H183.758H181.758V84.16H183.758ZM183.758 65.08L182.837 66.8555C187.297 69.1683 191.929 70.9056 196.729 72.0642L197.198 70.12L197.667 68.1758C193.187 67.0944 188.858 65.4717 184.678 63.3045L183.758 65.08ZM197.198 70.12L196.736 72.066C201.586 73.2168 206.222 73.8 210.638 73.8V71.8V69.8C206.574 69.8 202.25 69.2632 197.66 68.174L197.198 70.12ZM210.638 71.8V73.8C214.702 73.8 218.091 73.1887 220.547 71.715L219.518 70L218.489 68.285C216.945 69.2113 214.414 69.8 210.638 69.8V71.8ZM219.518 70L220.547 71.715C223.119 70.1718 224.518 67.8172 224.518 64.84H222.518H220.518C220.518 66.3428 219.917 67.4282 218.489 68.285L219.518 70ZM222.518 64.84H224.518C224.518 62.6666 223.774 60.7352 222.3 59.1554L220.838 60.52L219.376 61.8846C220.141 62.7048 220.518 63.6534 220.518 64.84H222.518ZM220.838 60.52L222.39 59.2588C221.113 57.6871 219.289 56.3697 217.052 55.2511L216.158 57.04L215.263 58.8289C217.186 59.7903 218.483 60.7929 219.286 61.7812L220.838 60.52ZM216.158 57.04L217.052 55.2511C214.909 54.1795 211.617 52.7182 207.209 50.8748L206.438 52.72L205.666 54.5652C210.058 56.4018 213.247 57.8205 215.263 58.8289L216.158 57.04ZM206.438 52.72L207.216 50.8778C199.59 47.654 194.258 44.1593 191.019 40.4787L189.518 41.8L188.016 43.1213C191.817 47.4407 197.766 51.226 205.659 54.5622L206.438 52.72ZM189.518 41.8L191.019 40.4787C187.852 36.88 186.238 32.444 186.238 27.04H184.238H182.238C182.238 33.316 184.143 38.72 188.016 43.1213L189.518 41.8ZM184.238 27.04H186.238C186.238 22.6317 187.442 18.757 189.835 15.3493L188.198 14.2L186.561 13.0507C183.674 17.163 182.238 21.8482 182.238 27.04H184.238ZM188.198 14.2L189.818 15.3722C192.302 11.939 195.76 9.23086 200.273 7.27511L199.478 5.44L198.683 3.60489C193.596 5.80913 189.534 8.94102 186.577 13.0278L188.198 14.2ZM199.478 5.44L200.273 7.27511C204.778 5.32275 210.02 4.31999 216.038 4.31999V2.31999V0.319994C209.576 0.319994 203.777 1.39724 198.683 3.60489L199.478 5.44ZM216.038 2.31999V4.31999C221.058 4.31999 225.482 4.71254 229.326 5.48115L229.718 3.51999L230.11 1.55883C225.953 0.727449 221.258 0.319994 216.038 0.319994V2.31999ZM229.718 3.51999L229.326 5.48115C233.163 6.2486 236.845 7.4759 240.375 9.16426L241.238 7.35999L242.101 5.55573C238.271 3.7241 234.273 2.3914 230.11 1.55883L229.718 3.51999ZM241.238 7.35999H239.238V25.96H241.238H243.238V7.35999H241.238ZM241.238 25.96L242.164 24.1875C234.872 20.3756 227.476 18.44 219.998 18.44V20.44V22.44C226.759 22.44 233.524 24.1844 240.311 27.7324L241.238 25.96ZM219.998 20.44V18.44C215.962 18.44 212.511 19.1086 209.792 20.6088L210.758 22.36L211.724 24.1112C213.645 23.0514 216.354 22.44 219.998 22.44V20.44ZM210.758 22.36L209.813 20.597C208.456 21.324 207.331 22.2796 206.55 23.5062C205.764 24.7424 205.398 26.1437 205.398 27.64H207.398H209.398C209.398 26.8163 209.592 26.1776 209.925 25.6537C210.265 25.1204 210.819 24.596 211.702 24.123L210.758 22.36ZM207.398 27.64H205.398C205.398 30.784 207.037 33.2501 209.823 34.9793L210.878 33.28L211.933 31.5807C210.078 30.4299 209.398 29.136 209.398 27.64H207.398ZM210.878 33.28L209.823 34.9793C212.311 36.5233 216.742 38.5398 222.979 41.0186L223.718 39.16L224.456 37.3014C218.214 34.8202 214.085 32.9167 211.933 31.5807L210.878 33.28ZM223.718 39.16L222.962 41.0115C228.572 43.3029 232.811 45.5137 235.751 47.6246L236.918 46L238.084 44.3754C234.785 42.0063 230.224 39.6571 224.474 37.3085L223.718 39.16ZM236.918 46L235.771 47.6385C238.744 49.7199 240.814 52.0732 242.079 54.6749L243.878 53.8L245.676 52.9251C244.062 49.6068 241.491 46.7601 238.065 44.3615L236.918 46ZM243.878 53.8L242.079 54.6749C243.346 57.2782 244.038 60.7132 244.038 65.08H246.038H248.038C248.038 60.3268 247.29 56.2418 245.676 52.9251L243.878 53.8ZM246.038 65.08H244.038C244.038 72.2785 241.441 77.7514 236.293 81.7389L237.518 83.32L238.743 84.9011C244.955 80.0886 248.038 73.4014 248.038 65.08H246.038ZM237.518 83.32L236.296 81.7364C231.198 85.6692 223.316 87.8 212.318 87.8V89.8V91.8C223.719 91.8 232.637 89.6108 238.739 84.9036L237.518 83.32ZM246.688 4.11999V2.11999H243.732L244.831 4.86369L246.688 4.11999ZM269.367 4.11999L271.235 3.405L270.743 2.11999H269.367V4.11999ZM290.728 59.92L288.86 60.635L290.728 65.5144L292.595 60.635L290.728 59.92ZM312.087 4.11999V2.11999H310.712L310.22 3.405L312.087 4.11999ZM334.647 4.11999L336.505 4.8614L337.599 2.11999H334.647V4.11999ZM301.168 88V90H302.523L303.025 88.7414L301.168 88ZM280.288 88L278.431 88.7437L278.934 90H280.288V88ZM246.688 4.11999V6.11999H269.367V4.11999V2.11999H246.688V4.11999ZM269.367 4.11999L267.5 4.83499L288.86 60.635L290.728 59.92L292.595 59.205L271.235 3.405L269.367 4.11999ZM290.728 59.92L292.595 60.635L313.955 4.83499L312.087 4.11999L310.22 3.405L288.86 59.205L290.728 59.92ZM312.087 4.11999V6.11999H334.647V4.11999V2.11999H312.087V4.11999ZM334.647 4.11999L332.79 3.37859L299.31 87.2586L301.168 88L303.025 88.7414L336.505 4.8614L334.647 4.11999ZM301.168 88V86H280.288V88V90H301.168V88ZM280.288 88L282.144 87.2563L248.544 3.3763L246.688 4.11999L244.831 4.86369L278.431 88.7437L280.288 88ZM354.9 84.28L353.948 86.039L353.957 86.0436L354.9 84.28ZM338.7 68.92L336.978 69.9368L336.985 69.949L336.993 69.9612L338.7 68.92ZM338.7 23.32L336.987 22.288L336.983 22.2956L336.978 22.3032L338.7 23.32ZM354.9 7.83999L353.957 6.0764L353.948 6.08105L354.9 7.83999ZM400.74 7.83999L399.788 9.59896L399.797 9.60356L400.74 7.83999ZM416.94 23.32L415.218 24.3368V24.3368L416.94 23.32ZM416.94 68.92L418.657 69.9459L418.663 69.9368L416.94 68.92ZM400.74 84.28L399.797 82.5164L399.788 82.5211L400.74 84.28ZM389.58 67L388.623 65.2442L389.58 67ZM397.98 58.72L396.249 57.7194V57.7194L397.98 58.72ZM397.98 33.64L396.232 34.6113L396.245 34.6345L396.258 34.6575L397.98 33.64ZM389.7 25.36L388.712 27.0989L388.727 27.1075L388.743 27.1158L389.7 25.36ZM366.06 25.36L367.018 27.1158L367.033 27.1075L367.048 27.0989L366.06 25.36ZM357.66 33.64L355.929 32.6394L355.925 32.6457L355.921 32.652L357.66 33.64ZM357.66 58.72L355.912 59.6913L355.92 59.706L355.929 59.7206L357.66 58.72ZM366.06 67L365.103 68.7558L365.111 68.7603L365.119 68.7647L366.06 67ZM377.94 89.8V87.8C369.76 87.8 362.409 86.028 355.844 82.5164L354.9 84.28L353.957 86.0436C361.152 89.892 369.16 91.8 377.94 91.8V89.8ZM354.9 84.28L355.852 82.5211C349.361 79.0082 344.223 74.135 340.408 67.8788L338.7 68.92L336.993 69.9612C341.178 76.825 346.84 82.1918 353.948 86.0389L354.9 84.28ZM338.7 68.92L340.423 67.9032C336.704 61.6043 334.82 54.3628 334.82 46.12H332.82H330.82C330.82 54.9972 332.857 62.9557 336.978 69.9368L338.7 68.92ZM332.82 46.12H334.82C334.82 37.8772 336.704 30.6357 340.423 24.3368L338.7 23.32L336.978 22.3032C332.857 29.2843 330.82 37.2428 330.82 46.12H332.82ZM338.7 23.32L340.413 24.352C344.23 18.0171 349.367 13.1085 355.852 9.59894L354.9 7.83999L353.948 6.08105C346.833 9.9315 341.171 15.3429 336.987 22.288L338.7 23.32ZM354.9 7.83999L355.844 9.60356C362.409 6.09203 369.76 4.31999 377.94 4.31999V2.31999V0.319994C369.16 0.319994 361.152 2.22796 353.957 6.07643L354.9 7.83999ZM377.94 2.31999V4.31999C386.037 4.31999 393.306 6.09059 399.788 9.59894L400.74 7.83999L401.692 6.08105C394.575 2.2294 386.643 0.319994 377.94 0.319994V2.31999ZM400.74 7.83999L399.797 9.60356C406.358 13.1129 411.487 18.0163 415.218 24.3368L416.94 23.32L418.663 22.3032C414.554 15.3437 408.883 9.92712 401.684 6.07643L400.74 7.83999ZM416.94 23.32L415.218 24.3368C418.937 30.6357 420.82 37.8772 420.82 46.12H422.82H424.82C424.82 37.2428 422.784 29.2843 418.663 22.3032L416.94 23.32ZM422.82 46.12H420.82C420.82 54.3628 418.937 61.6043 415.218 67.9032L416.94 68.92L418.663 69.9368C422.784 62.9557 424.82 54.9972 424.82 46.12H422.82ZM416.94 68.92L415.223 67.8941C411.494 74.1358 406.364 79.0038 399.797 82.5164L400.74 84.28L401.684 86.0436C408.877 82.1962 414.547 76.8242 418.657 69.9459L416.94 68.92ZM400.74 84.28L399.788 82.5211C393.306 86.0294 386.037 87.8 377.94 87.8V89.8V91.8C386.643 91.8 394.575 89.8906 401.692 86.0389L400.74 84.28ZM377.94 69.88V71.88C382.495 71.88 386.707 70.8453 390.538 68.7558L389.58 67L388.623 65.2442C385.413 66.9947 381.866 67.88 377.94 67.88V69.88ZM389.58 67L390.538 68.7558C394.393 66.6532 397.455 63.6263 399.712 59.7206L397.98 58.72L396.249 57.7194C394.345 61.0137 391.808 63.5068 388.623 65.2442L389.58 67ZM397.98 58.72L399.712 59.7206C401.993 55.7721 403.1 51.2163 403.1 46.12H401.1H399.1C399.1 50.6237 398.127 54.4679 396.249 57.7194L397.98 58.72ZM401.1 46.12H403.1C403.1 41.025 401.994 36.5007 399.702 32.6225L397.98 33.64L396.258 34.6575C398.127 37.8193 399.1 41.615 399.1 46.12H401.1ZM397.98 33.64L399.729 32.6687C397.55 28.7471 394.52 25.7107 390.658 23.6042L389.7 25.36L388.743 27.1158C391.921 28.8493 394.411 31.3329 396.232 34.6113L397.98 33.64ZM389.7 25.36L390.688 23.6211C386.847 21.4385 382.583 20.36 377.94 20.36V22.36V24.36C381.938 24.36 385.514 25.2815 388.712 27.0989L389.7 25.36ZM377.94 22.36V20.36C373.225 20.36 368.919 21.4353 365.072 23.6211L366.06 25.36L367.048 27.0989C370.241 25.2847 373.856 24.36 377.94 24.36V22.36ZM366.06 25.36L365.103 23.6042C361.248 25.7068 358.185 28.7337 355.929 32.6394L357.66 33.64L359.392 34.6406C361.295 31.3463 363.833 28.8532 367.018 27.1158L366.06 25.36ZM357.66 33.64L355.921 32.652C353.721 36.5247 352.66 41.0381 352.66 46.12H354.66H356.66C356.66 41.6019 357.6 37.7953 359.399 34.628L357.66 33.64ZM354.66 46.12H352.66C352.66 51.2032 353.721 55.7483 355.912 59.6913L357.66 58.72L359.409 57.7487C357.599 54.4917 356.66 50.6368 356.66 46.12H354.66ZM357.66 58.72L355.929 59.7206C358.185 63.6263 361.248 66.6532 365.103 68.7558L366.06 67L367.018 65.2442C363.833 63.5068 361.295 61.0137 359.392 57.7194L357.66 58.72ZM366.06 67L365.119 68.7647C369.026 70.8483 373.312 71.88 377.94 71.88V69.88V67.88C373.929 67.88 370.295 66.9917 367.001 65.2353L366.06 67ZM420.945 4.11999V2.11999H418.318L419.017 4.65229L420.945 4.11999ZM442.785 4.11999L444.71 3.57608L444.298 2.11999H442.785V4.11999ZM456.825 53.8L454.901 54.3439L456.859 61.2727L458.755 54.3266L456.825 53.8ZM470.385 4.11999V2.11999H468.858L468.456 3.59336L470.385 4.11999ZM485.505 4.11999L487.443 3.62504L487.059 2.11999H485.505V4.11999ZM498.225 53.92L496.288 54.415L498.138 61.6608L500.151 54.4584L498.225 53.92ZM512.145 4.11999V2.11999H510.628L510.219 3.58159L512.145 4.11999ZM533.985 4.11999L535.913 4.65229L536.612 2.11999H533.985V4.11999ZM510.825 88V90H512.348L512.753 88.5323L510.825 88ZM491.265 88L489.341 88.5451L489.753 90H491.265V88ZM477.465 39.28L479.39 38.7349L477.457 31.9117L475.54 38.7393L477.465 39.28ZM463.785 88V90H465.301L465.711 88.5407L463.785 88ZM444.105 88L442.177 88.5323L442.583 90H444.105V88ZM420.945 4.11999V6.11999H442.785V4.11999V2.11999H420.945V4.11999ZM442.785 4.11999L440.861 4.66391L454.901 54.3439L456.825 53.8L458.75 53.2561L444.71 3.57608L442.785 4.11999ZM456.825 53.8L458.755 54.3266L472.315 4.64662L470.385 4.11999L468.456 3.59336L454.896 53.2734L456.825 53.8ZM470.385 4.11999V6.11999H485.505V4.11999V2.11999H470.385V4.11999ZM485.505 4.11999L483.568 4.61495L496.288 54.415L498.225 53.92L500.163 53.425L487.443 3.62504L485.505 4.11999ZM498.225 53.92L500.151 54.4584L514.071 4.65839L512.145 4.11999L510.219 3.58159L496.299 53.3816L498.225 53.92ZM512.145 4.11999V6.11999H533.985V4.11999V2.11999H512.145V4.11999ZM533.985 4.11999L532.057 3.58769L508.897 87.4677L510.825 88L512.753 88.5323L535.913 4.65229L533.985 4.11999ZM510.825 88V86H491.265V88V90H510.825V88ZM491.265 88L493.19 87.4549L479.39 38.7349L477.465 39.28L475.541 39.8251L489.341 88.5451L491.265 88ZM477.465 39.28L475.54 38.7393L461.86 87.4593L463.785 88L465.711 88.5407L479.391 39.8207L477.465 39.28ZM463.785 88V86H444.105V88V90H463.785V88ZM444.105 88L446.033 87.4677L422.873 3.58769L420.945 4.11999L419.017 4.65229L442.177 88.5323L444.105 88Z" fill="white" fill-opacity="0.9" mask="url(#path-1-outside-1_16_52)"/>
</svg>
